<svg width="80" height="22" viewBox="0 0 80 22" fill="none" xmlns="http://www.w3.org/2000/svg">
<path d="M15.7594 0H25V22L15.7594 0Z" fill="#FA0F00"/>
<path d="M9.24809 0H0V22L9.24809 0Z" fill="#FA0F00"/>
<path d="M12.5037 8.1082L18.3913 22H14.5324L12.7716 17.5762H8.46321L12.5037 8.1082Z" fill="#FA0F00"/>
<path d="M38.398 13.522H34.564L33.574 16.69C33.562 16.786 33.502 16.834 33.394 16.834H31.594C31.474 16.834 31.432 16.774 31.468 16.654L34.942 6.052C35.026 5.824 35.074 5.494 35.086 5.062C35.086 4.99 35.122 4.954 35.194 4.954H37.714C37.786 4.954 37.828 4.984 37.84 5.044L41.728 16.672C41.764 16.78 41.734 16.834 41.638 16.834H39.622C39.538 16.834 39.478 16.798 39.442 16.726L38.398 13.522ZM34.996 11.812H37.984C37.912 11.56 37.762 11.068 37.534 10.336C37.306 9.604 37.096 8.92 36.904 8.284C36.712 7.648 36.568 7.144 36.472 6.772H36.454C36.322 7.396 35.836 9.076 34.996 11.812Z" fill="#FA0F00"/>
<path d="M47.1343 16.996C45.7903 16.996 44.7163 16.618 43.9123 15.862C43.1083 15.106 42.7063 13.99 42.7063 12.514C42.7063 11.17 43.1383 10.066 44.0023 9.202C44.8663 8.338 46.0183 7.906 47.4583 7.906C47.8183 7.906 48.1303 7.936 48.3943 7.996V4.108C48.3943 4.036 48.4303 4 48.5023 4H50.4823C50.5423 4 50.5723 4.036 50.5723 4.108V14.89C50.5723 15.346 50.5903 15.742 50.6263 16.078C50.6383 16.15 50.6083 16.204 50.5363 16.24C49.4923 16.744 48.3583 16.996 47.1343 16.996ZM48.3943 15.214V9.652C48.1543 9.52 47.8303 9.454 47.4223 9.454C46.6903 9.454 46.0963 9.712 45.6403 10.228C45.1843 10.744 44.9563 11.476 44.9563 12.424C44.9563 13.432 45.1783 14.176 45.6223 14.656C46.0783 15.136 46.6543 15.376 47.3503 15.376C47.7823 15.376 48.1303 15.322 48.3943 15.214Z" fill="#FA0F00"/>
<path d="M56.5867 7.906C57.8707 7.906 58.8727 8.326 59.5927 9.166C60.3247 10.006 60.6907 11.092 60.6907 12.424C60.6907 13.84 60.3127 14.956 59.5567 15.772C58.8007 16.588 57.7927 16.996 56.5327 16.996C55.1527 16.996 54.1087 16.564 53.4007 15.7C52.7047 14.824 52.3567 13.744 52.3567 12.46C52.3567 11.116 52.7407 10.024 53.5087 9.184C54.2887 8.332 55.3147 7.906 56.5867 7.906ZM56.4967 9.454C55.9087 9.454 55.4407 9.712 55.0927 10.228C54.7447 10.732 54.5707 11.464 54.5707 12.424C54.5707 13.36 54.7447 14.104 55.0927 14.656C55.4527 15.196 55.9447 15.466 56.5687 15.466C57.1207 15.466 57.5767 15.214 57.9367 14.71C58.2967 14.206 58.4767 13.456 58.4767 12.46C58.4767 11.536 58.3147 10.804 57.9907 10.264C57.6667 9.724 57.1687 9.454 56.4967 9.454Z" fill="#FA0F00"/>
<path d="M62.6342 4H64.5602C64.6562 4 64.7042 4.042 64.7042 4.126V8.212C65.2802 8.008 65.8562 7.906 66.4322 7.906C67.6202 7.906 68.5742 8.302 69.2942 9.094C70.0142 9.886 70.3742 10.924 70.3742 12.208C70.3742 13.696 69.9302 14.866 69.0422 15.718C68.1662 16.57 67.0922 16.996 65.8202 16.996C64.5482 16.996 63.4802 16.786 62.6162 16.366C62.5442 16.33 62.5082 16.27 62.5082 16.186V4.108C62.5082 4.036 62.5502 4 62.6342 4ZM68.1422 12.37C68.1422 11.446 67.9442 10.744 67.5482 10.264C67.1522 9.784 66.6182 9.544 65.9462 9.544C65.4902 9.544 65.0762 9.634 64.7042 9.814V15.196C65.0402 15.364 65.4602 15.448 65.9642 15.448C66.5762 15.448 67.0922 15.19 67.5122 14.674C67.9322 14.146 68.1422 13.378 68.1422 12.37Z" fill="#FA0F00"/>
<path d="M77.271 12.838H73.977C73.989 13.606 74.205 14.212 74.625 14.656C75.045 15.1 75.675 15.322 76.515 15.322C77.283 15.322 77.967 15.19 78.567 14.926C78.639 14.878 78.675 14.902 78.675 14.998V16.312C78.675 16.396 78.639 16.468 78.567 16.528C77.883 16.84 77.043 16.996 76.047 16.996C74.571 16.996 73.485 16.576 72.789 15.736C72.105 14.884 71.763 13.822 71.763 12.55C71.763 11.23 72.123 10.126 72.843 9.238C73.563 8.35 74.547 7.906 75.795 7.906C76.983 7.906 77.865 8.272 78.441 9.004C79.029 9.736 79.323 10.594 79.323 11.578C79.323 12.07 79.299 12.418 79.251 12.622C79.239 12.706 79.191 12.754 79.107 12.766C78.795 12.814 78.183 12.838 77.271 12.838ZM73.977 11.452H76.353C76.869 11.452 77.163 11.44 77.235 11.416C77.247 11.368 77.253 11.284 77.253 11.164C77.253 10.708 77.133 10.3 76.893 9.94C76.653 9.58 76.263 9.4 75.723 9.4C75.195 9.4 74.787 9.592 74.499 9.976C74.211 10.36 74.037 10.852 73.977 11.452Z" fill="#FA0F00"/>
</svg>
