<svg width="16" height="16" viewBox="0 0 16 16" fill="none" xmlns="http://www.w3.org/2000/svg">
<g clip-path="url(#clip0)">
<path d="M-4.85096e-07 15.293L5.4226 9.87037C4.53698 8.82458 3.99999 7.47462 3.99999 6.00001C3.99999 2.6914 6.69142 0 9.99999 0C13.3086 0 16 2.6914 16 6.00001C16 9.30861 13.3086 12 9.99999 12C8.52538 12 7.17542 11.463 6.12963 10.5774L0.707027 16L-4.85096e-07 15.293ZM9.99999 11C12.7568 11 15 8.75685 15 6.00001C15 3.24317 12.7568 1.00001 9.99999 1.00001C7.24315 1.00001 5 3.24317 5 6.00001C5 8.75685 7.24315 11 9.99999 11Z" fill="black"/>
</g>
<defs>
<clipPath id="clip0">
<rect width="16" height="16" fill="white" transform="matrix(-1 0 0 1 16 0)"/>
</clipPath>
</defs>
</svg>
